# xmcd
#
# Track frame offsets:
#	150
#	13865
#	27812
#	41722
#	57962
#	75462
#	89642
#	105652
#	120060
#	133462
#
# Disc length: 1915 seconds
#
# Revision: 1
# Processed by: cddbd v1.5.2PL0 Copyright (c) Steve Scherf et al.
# Submitted via: audiograbber 1.83.01
#
DISCID=7c07790a
DTITLE=Mary Lynn Wren - More Than Friends
DYEAR=1994
DGENRE=Country
TTITLE0=Tarnished Silver
TTITLE1=More Than Friends
TTITLE2=Count Me In
TTITLE3=One Track Love
TTITLE4=Where Blue Begins
TTITLE5=The Road of Life
TTITLE6=How Did You Do That to Me
TTITLE7=Is This Where I Belong
TTITLE8=Strangers of the Heart
TTITLE9=To the Light
EXTD=
EXTT0=
EXTT1=
EXTT2=
EXTT3=
EXTT4=
EXTT5=
EXTT6=
EXTT7=
EXTT8=
EXTT9=
PLAYORDER=
